<svg width="0" height="0" class="hidden">
  <symbol fill="none" xmlns="http://www.w3.org/2000/svg" viewBox="0 0 12 10" id="check-double-line-icon">
    <path fill-rule="evenodd" clip-rule="evenodd" d="M4.21512 5.72L9.88512 0.0499992L12.0001 2.165L4.21512 9.95L0.00012207
      5.735L2.11512 3.62L4.21512 5.72ZM10.5851 2.165L9.88511 1.465L4.21511
      7.135L2.11511 5.035L1.41511 5.735L4.21511 8.535L10.5851 2.165Z" fill="#f9fafb"></path>
  </symbol>
  <symbol version="1.1" id="copy-icon" xmlns="http://www.w3.org/2000/svg" xmlns:xlink="http://www.w3.org/1999/xlink" x="0px" y="0px" xml:space="preserve" viewBox="0 0 115.77 122.88">
    <g>
      <path d="M89.62,13.96v7.73h12.19h0.01v0.02c3.85,0.01,7.34,1.57,9.86,4.1c2.5,2.51,4.06,5.98,4.07,9.82h0.02v0.02 v73.27v0.01h-0.02c-0.01,3.84-1.57,7.33-4.1,9.86c-2.51,2.5-5.98,4.06-9.82,4.07v0.02h-0.02h-61.7H40.1v-0.02 c-3.84-0.01-7.34-1.57-9.86-4.1c-2.5-2.51-4.06-5.98-4.07-9.82h-0.02v-0.02V92.51H13.96h-0.01v-0.02c-3.84-0.01-7.34-1.57-9.86-4.1 c-2.5-2.51-4.06-5.98-4.07-9.82H0v-0.02V13.96v-0.01h0.02c0.01-3.85,1.58-7.34,4.1-9.86c2.51-2.5,5.98-4.06,9.82-4.07V0h0.02h61.7 h0.01v0.02c3.85,0.01,7.34,1.57,9.86,4.1c2.5,2.51,4.06,5.98,4.07,9.82h0.02V13.96L89.62,13.96z M79.04,21.69v-7.73v-0.02h0.02 c0-0.91-0.39-1.75-1.01-2.37c-0.61-0.61-1.46-1-2.37-1v0.02h-0.01h-61.7h-0.02v-0.02c-0.91,0-1.75,0.39-2.37,1.01 c-0.61,0.61-1,1.46-1,2.37h0.02v0.01v64.59v0.02h-0.02c0,0.91,0.39,1.75,1.01,2.37c0.61,0.61,1.46,1,2.37,1v-0.02h0.01h12.19V35.65 v-0.01h0.02c0.01-3.85,1.58-7.34,4.1-9.86c2.51-2.5,5.98-4.06,9.82-4.07v-0.02h0.02H79.04L79.04,21.69z M105.18,108.92V35.65v-0.02 h0.02c0-0.91-0.39-1.75-1.01-2.37c-0.61-0.61-1.46-1-2.37-1v0.02h-0.01h-61.7h-0.02v-0.02c-0.91,0-1.75,0.39-2.37,1.01 c-0.61,0.61-1,1.46-1,2.37h0.02v0.01v73.27v0.02h-0.02c0,0.91,0.39,1.75,1.01,2.37c0.61,0.61,1.46,1,2.37,1v-0.02h0.01h61.7h0.02 v0.02c0.91,0,1.75-0.39,2.37-1.01c0.61-0.61,1-1.46,1-2.37h-0.02V108.92L105.18,108.92z"></path>
    </g>
  </symbol>
  <symbol xmlns="http://www.w3.org/2000/svg" viewBox="0 0 10 12" id="calendar-icon">
    <path fill-rule="evenodd" clip-rule="evenodd" d="M8.99996 1.36298L8.49996 1.36298L8.49996 0.362976L7.49996
      0.362976L7.49996 1.36298L2.49996 1.36298L2.49996 0.362976L1.49996
      0.362976L1.49996 1.36298L0.999962 1.36298C0.449962 1.36298 -3.81377e-05
      1.81298 -3.81341e-05 2.36298L-3.80827e-05 10.363C-3.80792e-05 10.913
      0.449962 11.363 0.999962 11.363L8.99996 11.363C9.54996 11.363 9.99996
      10.913 9.99996 10.363L9.99996 2.36298C9.99996 1.81298 9.54996 1.36298
      8.99996 1.36298ZM8.99995 10.363L0.999953 10.363L0.999953 4.86298L8.99995
      4.86298L8.99995 10.363ZM0.999953 3.86298L8.99995 3.86298L8.99995
      2.36298L0.999953 2.36298L0.999953 3.86298Z" fill="#f9fafb"></path>
  </symbol>
  <symbol fill="none" xmlns="http://www.w3.org/2000/svg" viewBox="0 0 12 8" id="check-icon">
    <path d="M4.13046 6.26041L1.69796 3.82791L0.869629 4.65041L4.13046
      7.91124L11.1305 0.911245L10.308 0.0887451L4.13046 6.26041Z" fill="#f9fafb"></path>
  </symbol>
  <symbol fill="none" xmlns="http://www.w3.org/2000/svg" viewBox="0 0 76 76" id="drop-file-icon">
    <path fill-rule="evenodd" clip-rule="evenodd" d="M64.875 0.375L64.875 11.125L75.625 11.125L75.625 18.2917L64.875
      18.2917L64.875 29.0058C64.875 29.0058 57.7442 29.0417 57.7083
      29.0058L57.7083 18.2917L46.9583 18.2917C46.9583 18.2917 46.9942 11.1608
      46.9583 11.125L57.7083 11.125L57.7083 0.375L64.875 0.375ZM57.7083
      68.4583L7.54167 68.4583L7.54167 18.2917L39.7917 18.2917L39.7917
      11.125L7.54167 11.125C3.6 11.125 0.375 14.35 0.375 18.2917L0.375
      68.4583C0.375 72.4 3.6 75.625 7.54167 75.625L57.7083 75.625C61.65 75.625
      64.875 72.4 64.875 68.4583L64.875 36.2083L57.7083 36.2083L57.7083
      68.4583ZM29.7942 57.0992L22.7708 48.6425L12.9167 61.2917L52.3333
      61.2917L39.6483 44.4142L29.7942 57.0992Z" fill="#f9fafb"></path>
  </symbol>
  <symbol fill="none" xmlns="http://www.w3.org/2000/svg" viewBox="0 0 24 24" id="exclamation-icon">
    <path fill-rule="evenodd" clip-rule="evenodd" d="M12 2C6.47998 2 2 6.48 2 12C2 17.52 6.47998 22 12 22C17.52 22 22 17.52
      22 12C22 6.48 17.52 2 12 2ZM11 7V9H13V7H11ZM11 11V17H13V11H11ZM4 12C4
      16.41 7.58997 20 12 20C16.41 20 20 16.41 20 12C20 7.59 16.41 4 12
      4C7.58997 4 4 7.59 4 12Z" fill="#fff" fill-opacity="0.95"></path>
  </symbol>
  <symbol fill="none" xmlns="http://www.w3.org/2000/svg" viewBox="0 0 20 20" id="globe-icon">
    <path fill-rule="evenodd" clip-rule="evenodd" d="M10 0C4.47998 0 0 4.47998 0 10C0 15.52 4.47998 20 10 20C15.52 20 20
      15.52 20 10C20 4.47998 15.52 0 10 0ZM2 10C2 9.38995 2.07996 8.78998
      2.20996 8.21997L6.98999 13V14C6.98999 15.1 7.89001 16 8.98999
      16V17.93C5.06006 17.43 2 14.0699 2 10ZM13.99 14C14.89 14 15.63 14.59 15.89
      15.4C17.1899 13.98 18 12.08 18 10C18 6.65002 15.92 3.77002 12.99
      2.59003V3C12.99 4.10004 12.09 5 10.99 5H8.98999V7C8.98999 7.55005 8.54004
      8 7.98999 8H5.98999V10H11.99C12.54 10 12.99 10.45 12.99 11V14H13.99Z" fill="#f9fafb" fill-opacity="0.95"></path>
  </symbol>
  <symbol fill="none" xmlns="http://www.w3.org/2000/svg" viewBox="0 0 8 11" id="location-icon">
    <path fill-rule="evenodd" clip-rule="evenodd" d="M4.00001 0.159241C2.06501 0.159241 0.500011 1.72424 0.500011
      3.65924C0.500011 6.28424 4.00001 10.1592 4.00001 10.1592C4.00001 10.1592
      7.50001 6.28424 7.50001 3.65924C7.50001 1.72424 5.93501 0.159241 4.00001
      0.159241ZM1.5 3.65924C1.5 2.27924 2.62 1.15924 4 1.15924C5.38 1.15924 6.5
      2.27924 6.5 3.65924C6.5 5.09924 5.06 7.25424 4 8.59924C2.96 7.26424 1.5
      5.08424 1.5 3.65924ZM2.75001 3.65924C2.75001 2.96888 3.30965 2.40924
      4.00001 2.40924C4.44659 2.40924 4.85925 2.64749 5.08254 3.03424C5.30583
      3.42099 5.30583 3.89749 5.08254 4.28424C4.85925 4.67099 4.44659 4.90924
      4.00001 4.90924C3.30965 4.90924 2.75001 4.3496 2.75001 3.65924Z" fill="#f9fafb"></path>
  </symbol>
  <symbol fill="none" xmlns="http://www.w3.org/2000/svg" viewBox="0 0 10 10" id="time-icon">
    <path fill-rule="evenodd" clip-rule="evenodd" d="M4.99512 0C2.23512 0 0.00012207 2.24 0.00012207 5C0.00012207 7.76
      2.23512 10 4.99512 10C7.76012 10 10.0001 7.76 10.0001 5C10.0001 2.24
      7.76012 0 4.99512 0ZM5.00012 9C2.79012 9 1.00012 7.21 1.00012 5C1.00012
      2.79 2.79012 1 5.00012 1C7.21012 1 9.00012 2.79 9.00012 5C9.00012 7.21
      7.21012 9 5.00012 9ZM4.50012 2.5H5.25012V5.125L7.50012 6.46L7.12512
      7.075L4.50012 5.5V2.5Z" fill="#f9fafb"></path>
  </symbol>
</svg>